<?xml version="1.0" standalone="no"?>
<!DOCTYPE svg PUBLIC "-//W3C//DTD SVG 20010904//EN"
 "http://www.w3.org/TR/2001/REC-SVG-20010904/DTD/svg10.dtd">
<svg version="1.0" xmlns="http://www.w3.org/2000/svg"
 width="248.000000pt" height="248.000000pt" viewBox="0 0 248.000000 248.000000"
 preserveAspectRatio="xMidYMid meet">
<metadata>
Created by potrace 1.14, written by Peter Selinger 2001-2017
</metadata>
<g transform="translate(0.000000,248.000000) scale(0.100000,-0.100000)"
fill="#000000" stroke="none">
<path d="M475 2386 c-15 -15 -26 -41 -30 -72 -7 -52 -27 -136 -40 -169 -12
-30 113 93 146 144 34 52 36 81 11 104 -26 24 -59 21 -87 -7z"/>
<path d="M1454 2366 c-97 -42 -120 -183 -52 -325 23 -51 49 -83 111 -141 368
-342 441 -449 440 -645 0 -70 -5 -101 -22 -139 -12 -27 -20 -51 -18 -53 11
-11 129 136 161 199 55 110 71 184 71 323 0 147 -18 221 -85 360 -101 209
-255 345 -469 414 -74 24 -94 25 -137 7z"/>
<path d="M805 2316 c-38 -12 -86 -31 -105 -41 -138 -71 -293 -206 -392 -339
-87 -116 -104 -155 -35 -80 104 114 272 225 412 272 61 21 131 36 220 47 76
10 122 26 145 50 29 31 22 64 -19 92 -45 30 -130 30 -226 -1z"/>
<path d="M79 2201 c-43 -43 -42 -69 4 -156 31 -59 32 -63 31 -185 0 -74 -8
-167 -18 -228 -20 -111 -17 -148 4 -55 18 82 65 214 112 313 48 103 57 163 34
222 -19 48 -39 75 -76 101 -35 24 -57 21 -91 -12z"/>
<path d="M1971 2155 c84 -94 174 -283 204 -424 9 -42 15 -123 15 -196 0 -101
-4 -138 -24 -206 -70 -239 -245 -406 -490 -469 -109 -28 -165 -25 -361 15 -93
19 -183 35 -200 35 -74 -1 -155 -68 -155 -128 0 -52 51 -121 115 -155 35 -19
56 -22 160 -22 122 1 175 10 365 60 52 14 120 28 151 32 154 16 188 -78 53
-146 -65 -33 -209 -41 -303 -17 -115 29 -209 16 -245 -35 -22 -32 -20 -61 5
-93 39 -49 74 -60 194 -60 384 1 814 281 912 595 18 58 37 76 46 42 3 -10 5 8
6 40 0 32 -3 57 -9 57 -5 0 -10 11 -10 25 0 16 6 25 15 25 12 0 15 8 11 33 -3
17 -10 88 -16 157 -19 216 -66 361 -174 540 -62 103 -160 216 -261 300 l-30
25 26 -30z"/>
<path d="M915 2133 c-235 -52 -349 -102 -512 -225 -141 -106 -267 -279 -289
-395 -7 -35 -29 -45 -37 -15 -3 9 -5 -9 -6 -40 0 -33 3 -58 9 -58 14 0 13 -37
-2 -42 -17 -6 6 -288 32 -387 40 -157 107 -303 191 -418 49 -66 161 -185 202
-215 22 -16 17 -6 -23 47 -78 102 -139 244 -169 393 -15 73 -13 275 3 342 49
201 176 364 353 453 146 74 295 85 513 37 204 -45 265 -40 324 30 31 38 33 70
5 126 -21 45 -63 82 -119 105 -76 31 -275 10 -500 -51 -202 -56 -322 -31 -275
56 40 75 216 115 350 81 140 -36 205 -31 258 18 52 49 20 129 -61 153 -37 11
-204 15 -247 5z"/>
<path d="M526 1372 c-150 -155 -215 -381 -172 -604 35 -182 108 -323 234 -451
153 -156 388 -246 474 -182 48 36 63 73 63 155 0 134 -56 226 -229 373 -63 54
-141 127 -173 163 -71 80 -145 197 -167 264 -23 72 -21 215 4 280 11 27 18 50
16 50 -2 0 -25 -22 -50 -48z"/>
<path d="M2396 925 c-8 -43 -57 -194 -81 -250 -9 -22 -33 -75 -52 -119 -29
-65 -34 -87 -31 -127 6 -60 51 -136 95 -162 30 -17 34 -17 63 -2 19 10 38 31
46 52 15 34 14 38 -22 111 -49 103 -54 177 -25 376 12 81 20 150 18 153 -3 2
-8 -12 -11 -32z"/>
<path d="M2185 600 c-165 -166 -357 -260 -597 -290 -152 -19 -209 -78 -132
-137 33 -25 45 -28 103 -26 221 6 518 218 680 486 12 20 21 37 19 37 -2 0 -35
-32 -73 -70z"/>
<path d="M2019 293 c-80 -87 -109 -128 -109 -159 0 -56 63 -75 107 -32 18 19
27 42 34 98 6 40 19 95 30 121 10 27 17 49 15 49 -2 0 -37 -35 -77 -77z"/>
</g>
</svg>
